HIERARCHY
ROOT Hips
{
	OFFSET -0.001795 -0.223333 0.028219
	CHANNELS 6 Xposition Yposition Zposition Zrotation Yrotation Xrotation 
	JOINT LeftUpLeg
	{
		OFFSET 0.069520 -0.091406 -0.006815
		CHANNELS 3 Zrotation Yrotation Xrotation
		JOINT LeftLeg
		{
			OFFSET 0.034277 -0.375199 -0.004496
			CHANNELS 3 Zrotation Yrotation Xrotation
			JOINT LeftFoot
			{
				OFFSET -0.013596 -0.397961 -0.043693
				CHANNELS 3 Zrotation Yrotation Xrotation
				JOINT LeftToe
				{
					OFFSET 0.026358 -0.055791 0.119288
					CHANNELS 3 Zrotation Yrotation Xrotation
					End Site
					{
						OFFSET 0.000000 0.000000 0.000000
					}
				}
			}
		}
	}
	JOINT RightUpLeg
	{
		OFFSET -0.067670 -0.090522 -0.004320
		CHANNELS 3 Zrotation Yrotation Xrotation
		JOINT RightLeg
		{
			OFFSET -0.038290 -0.382569 -0.008850
			CHANNELS 3 Zrotation Yrotation Xrotation
			JOINT RightFoot
			{
				OFFSET 0.015774 -0.398415 -0.042312
				CHANNELS 3 Zrotation Yrotation Xrotation
				JOINT RightToe
				{
					OFFSET -0.025372 -0.048144 0.123348
					CHANNELS 3 Zrotation Yrotation Xrotation
					End Site
					{
						OFFSET 0.000000 0.000000 0.000000
					}
				}
			}
		}
	}
	JOINT Spine
	{
		OFFSET -0.002533 0.108963 -0.026696
		CHANNELS 3 Zrotation Yrotation Xrotation
		JOINT Spine1
		{
			OFFSET 0.005487 0.135180 0.001092
			CHANNELS 3 Zrotation Yrotation Xrotation
			JOINT Spine2
			{
				OFFSET 0.001457 0.052922 0.025425
				CHANNELS 3 Zrotation Yrotation Xrotation
				JOINT Neck
				{
					OFFSET -0.002778 0.213870 -0.042857
					CHANNELS 3 Zrotation Yrotation Xrotation
					JOINT Head
					{
						OFFSET 0.005152 0.064970 0.051349
						CHANNELS 3 Zrotation Yrotation Xrotation
						End Site
						{
							OFFSET 0.000000 0.000000 0.000000
						}
					}
				}
				JOINT LeftShoulder
				{
					OFFSET 0.078845 0.121749 -0.034090
					CHANNELS 3 Zrotation Yrotation Xrotation
					JOINT LeftArm
					{
						OFFSET 0.090977 0.030469 -0.008868
						CHANNELS 3 Zrotation Yrotation Xrotation
						JOINT LeftForeArm
						{
							OFFSET 0.259612 -0.012772 -0.027456
							CHANNELS 3 Zrotation Yrotation Xrotation
							JOINT LeftHand
							{
								OFFSET 0.249234 0.008986 -0.001171
								CHANNELS 3 Zrotation Yrotation Xrotation
								End Site
								{
									OFFSET 0.000000 0.000000 0.000000
								}
							}
						}
					}
				}
				JOINT RightShoulder
				{
					OFFSET -0.081759 0.118833 -0.038615
					CHANNELS 3 Zrotation Yrotation Xrotation
					JOINT RightArm
					{
						OFFSET -0.096012 0.032551 -0.009143
						CHANNELS 3 Zrotation Yrotation Xrotation
						JOINT RightForeArm
						{
							OFFSET -0.253742 -0.013329 -0.021401
							CHANNELS 3 Zrotation Yrotation Xrotation
							JOINT RightHand
							{
								OFFSET -0.255298 0.007772 -0.005559
								CHANNELS 3 Zrotation Yrotation Xrotation
								End Site
								{
									OFFSET 0.000000 0.000000 0.000000
								}
							}
						}
					}
				}
			}
		}
	}
}
MOTION
Frames: 9
Frame Time: 0.050000
0.000000 0.932870 0.000000 0.997433 -1.518726 -2.728010 5.660962 0.246285 5.851662 -0.330084 0.172004 -4.291088 2.875026 8.555892 9.200359 0.000000 0.000000 0.000000 -6.990762 -0.024210 4.727562 2.630250 -0.252666 1.143566 -2.922469 -9.241110 6.055636 0.000000 0.000000 0.000000 7.741121 -0.647874 6.124141 -7.430795 2.514628 -21.835675 -1.300493 6.766101 25.732794 9.056930 -3.956044 -19.125528 0.000000 0.000000 0.000000 -24.424346 -9.168588 2.029464 -46.393122 -2.407499 -6.142885 -10.055793 -24.806785 3.111115 0.000000 0.000000 0.000000 32.158590 -3.793771 -2.371063 51.402013 6.295023 -5.396925 6.416069 27.185711 3.062532 0.000000 0.000000 0.000000 
0.000364 0.932253 0.000144 1.030558 -2.004028 -2.406780 5.821585 0.260659 6.225103 -0.797819 0.239391 -5.395267 3.048683 8.855971 9.395454 0.000000 0.000000 0.000000 -7.070767 0.014690 4.258807 2.587141 -0.243228 1.204571 -2.796643 -8.919062 5.784098 0.000000 0.000000 0.000000 8.239546 -0.598271 5.401622 -8.249512 2.705047 -22.211325 -1.464161 7.138603 26.085080 9.112288 -3.836343 -19.891585 0.000000 0.000000 0.000000 -23.598666 -8.354045 1.600564 -46.548628 -1.893487 -6.402071 -9.940671 -24.473780 3.041612 0.000000 0.000000 0.000000 32.546829 -4.593891 -2.942161 52.616893 5.914433 -5.662429 6.214670 27.168668 3.058766 0.000000 0.000000 0.000000 
0.000330 0.932176 -0.000236 1.274577 -1.664018 -2.482400 5.766258 0.213913 5.238884 -1.128985 0.217471 -3.662950 2.994389 8.681956 8.925748 0.000000 0.000000 0.000000 -7.227752 0.007237 4.515367 2.451380 -0.234710 0.958016 -2.937388 -9.198626 5.765569 0.000000 0.000000 0.000000 7.977612 -0.562269 5.178087 -8.161136 2.674695 -22.457019 -1.529191 6.811912 26.703606 8.361170 -3.275633 -20.481171 0.000000 0.000000 0.000000 -23.728415 -8.244911 1.611324 -46.308044 -2.381679 -6.287166 -9.102005 -22.978184 2.689065 0.000000 0.000000 0.000000 32.463627 -4.185992 -2.681042 51.092573 5.631420 -5.741825 7.071291 26.023468 3.042165 0.000000 0.000000 0.000000 
-0.000004 0.932705 -0.000792 1.549241 -1.174813 -2.762228 5.665527 0.216764 5.314976 -1.377018 0.233199 -3.499733 2.698613 8.249428 9.078719 0.000000 0.000000 0.000000 -7.590725 0.005171 4.782429 2.680776 -0.260604 1.124967 -3.094682 -9.543793 5.885458 0.000000 0.000000 0.000000 7.907222 -0.610033 5.696198 -8.376723 2.709094 -23.174711 -1.518224 6.867137 27.517724 8.779579 -3.600794 -20.064866 0.000000 0.000000 0.000000 -23.821596 -8.077906 1.409741 -46.314418 -2.442061 -6.299457 -8.165801 -23.465394 2.552825 0.000000 0.000000 0.000000 32.831820 -4.592918 -2.782108 50.403096 6.278937 -5.594813 7.649350 25.341963 3.094362 0.000000 0.000000 0.000000 
-0.000727 0.933019 -0.001882 1.327251 -0.572402 -2.940830 5.733724 0.167684 4.486648 -0.899155 0.153283 -2.004185 2.526461 7.911467 8.716987 0.000000 0.000000 0.000000 -7.478936 -0.034838 5.159303 3.114896 -0.317802 0.890777 -3.251977 -9.925357 6.184070 0.000000 0.000000 0.000000 7.579725 -0.620006 5.948048 -7.575690 2.553251 -22.353478 -1.967848 6.957029 26.864729 8.528922 -3.394568 -19.710008 0.000000 0.000000 0.000000 -23.580875 -7.409348 0.827890 -46.145987 -2.324099 -6.215075 -8.243835 -24.138767 2.615679 0.000000 0.000000 0.000000 32.869645 -4.590612 -2.597612 49.793423 6.136872 -5.602942 8.054207 24.602913 3.059641 0.000000 0.000000 0.000000 
-0.001562 0.933058 -0.003411 0.992555 -0.090144 -2.686517 6.199068 0.104484 3.707419 -0.919958 0.140270 -1.462538 2.355696 7.613001 8.557973 0.000000 0.000000 0.000000 -7.334281 -0.039064 4.713225 3.729082 -0.389653 1.180000 -3.423295 -10.298644 6.342736 0.000000 0.000000 0.000000 7.485288 -0.644205 6.133313 -7.775669 2.603571 -22.520715 -1.577400 6.921557 27.119451 8.898556 -3.595812 -19.819412 0.000000 0.000000 0.000000 -23.904795 -7.488511 0.755691 -45.923854 -2.449363 -6.123030 -7.514527 -24.336040 2.473647 0.000000 0.000000 0.000000 32.965435 -4.356517 -2.286599 49.017352 6.621159 -5.444127 8.403456 23.780653 2.998448 0.000000 0.000000 0.000000 
-0.002076 0.933600 -0.005258 0.611386 -0.078956 -2.527072 6.473514 0.047119 2.457268 -0.614981 0.061827 0.220937 2.454983 7.736858 8.371161 0.000000 0.000000 0.000000 -6.978707 -0.050592 4.487847 3.924433 -0.413413 1.040601 -3.373814 -10.273514 6.693759 0.000000 0.000000 0.000000 7.491984 -0.701631 6.623660 -7.829304 2.624629 -22.330968 -1.333962 7.252933 26.936747 9.199684 -3.648984 -20.312617 0.000000 0.000000 0.000000 -23.915419 -7.258301 0.492732 -45.713802 -2.394488 -6.068726 -7.143862 -24.851684 2.429510 0.000000 0.000000 0.000000 33.088577 -4.162831 -2.004242 48.429762 7.439482 -5.139539 8.412908 23.947831 3.025333 0.000000 0.000000 0.000000 
-0.001657 0.933905 -0.007156 0.057345 0.287047 -2.351809 6.911513 -0.013586 1.220786 -0.327418 -0.018050 1.710660 2.401159 7.584186 8.043283 0.000000 0.000000 0.000000 -6.417877 -0.079091 4.240740 4.048052 -0.431779 1.014991 -3.476163 -10.552768 7.095234 0.000000 0.000000 0.000000 7.418329 -0.813124 7.632414 -8.166856 2.698600 -22.648799 -0.673114 7.016487 27.084417 9.029756 -3.524116 -20.447129 0.000000 0.000000 0.000000 -24.168558 -6.887334 0.254188 -45.056258 -2.505202 -5.953259 -7.403606 -25.613598 2.562787 0.000000 0.000000 0.000000 33.019778 -4.096284 -1.934560 47.728856 8.394245 -4.778396 8.993000 24.275915 3.188779 0.000000 0.000000 0.000000 
0.000335 0.934049 -0.008717 -0.207017 0.434501 -1.944998 6.705302 -0.071659 -0.423875 0.301526 -0.167856 3.600558 2.507140 7.684191 7.695724 0.000000 0.000000 0.000000 -6.199591 -0.060107 3.616972 3.991171 -0.425736 1.177313 -3.539746 -10.731264 7.368874 0.000000 0.000000 0.000000 7.207196 -0.878249 8.278917 -8.260856 2.701222 -23.009183 -0.156375 7.352641 27.539872 9.181564 -3.454742 -21.084264 0.000000 0.000000 0.000000 -24.025893 -6.629009 -0.002041 -45.142259 -2.668054 -5.927434 -7.271867 -25.601420 2.520676 0.000000 0.000000 0.000000 32.988244 -3.567567 -1.328967 46.560177 10.145527 -4.209808 8.729332 25.220559 3.286179 0.000000 0.000000 0.000000 
